<svg id="eE6u04fGBzP1" xmlns="http://www.w3.org/2000/svg" xmlns:xlink="http://www.w3.org/1999/xlink" viewBox="0 0 16 16" shape-rendering="geometricPrecision" text-rendering="geometricPrecision"><ellipse rx="7.5" ry="7.5" transform="translate(8 8)" fill="#87e515" fill-opacity="0.35" stroke-width="0"/><path d="M1.052363,4.75074c-.77789-.97236-.031093-4.02932,1.564577-3.15895c2.2452,1.22465-.986092,9.739257-.986092,12.127637" transform="matrix(1 0 0 1.017221 0-.128532)" fill="none" stroke="#700c2c" stroke-width="0.5"/><path d="M-0.62761,11.073023c1.94585-2.43229,4.882236-1.66838,6.477356-3.2635" transform="matrix(.781161-.046276 0.034975 0.590388 0.602989 3.415943)" fill="none" stroke="#700c2c" stroke-width="0.5"/><path d="M5.07214,4.70402c0,2.84674-1.2271,4.278722-1.2271,7.147832" fill="none" stroke="#700c2c" stroke-width="0.5"/><path d="M6.50149,8.17369c.517732-.528677-1.386906-.983353-1.05577,1.325194.148844,1.037681,1.605557-1.167609,1.05577-1.393314" transform="translate(.000001 0)" fill="none" stroke="#700c2c" stroke-width="0.4"/><path d="M6.604456,7.916047c.147269.948532.049301,2.981743.884682,1.318752" fill="none" stroke="#700c2c" stroke-width="0.4"/><path d="M7.659425,8.17369c.1327-.165867.862061-1.04299,1.08983-.794742.382497.416888-1.260116,3.825819.800341,1.551084" transform="translate(0 0.000001)" fill="none" stroke="#700c2c" stroke-width="0.4"/><path d="M9.77097,7.73095c2.92891-2.520222-1.021715,3.371647,1.58566,1.503849" fill="none" stroke="#700c2c" stroke-width="0.4"/><path d="M12.8361,7.205037c-.019742-.710146-1.961021.16627-1.430395,1.724996s1.543372-1.083715,1.430395-1.724996" fill="none" stroke="#700c2c" stroke-width="0.4"/><path d="M12.8361,6.999999c.000002,2.982366.4063,3.271748,2.6639,1.810949" transform="translate(0 0.000001)" fill="none" stroke="#700c2c" stroke-width="0.4"/><path d="" fill="none" stroke="#3f5787" stroke-width="0.5"/><path d="" fill="none" stroke="#3f5787" stroke-width="0.5"/><line x1="-0.085144" y1="-1.189467" x2="-0.255431" y2="1.327314" transform="translate(7.744569 8.532351)" fill="none" stroke="#700c2c" stroke-width="0.4"/><line x1="0.43423" y1="-1.327314" x2="0.212856" y2="1.327314" transform="translate(9.33674 8.532351)" fill="none" stroke="#700c2c" stroke-width="0.4"/></svg>